# xmcd
#
# Track frame offsets: 
#        150
#        10336
#        24073
#        35065
#        47936
#        60210
#        72353
#        84163
#        95629
#        107126
#        121090
#        135254
#
# Disc length: 1918 seconds
#
# Revision: 0
# Processed by: cddbd v1.5.2PL0 Copyright (c) Steve Scherf et al.
# Submitted via: ExactAudioCopy v0.99pb5
#
DISCID=8e077c0c
DTITLE=Bo Diddley - Bo Diddley Is A... Lover
DYEAR=1961
DGENRE=Blues
TTITLE0=Not Guilty
TTITLE1=Hong Kong, Mississippi
TTITLE2=You're Looking Good
TTITLE3=Bo's Vacation
TTITLE4=Congo
TTITLE5=Bo's Blules
TTITLE6=Bo Diddley Is A Lover
TTITLE7=Aztec
TTITLE8=Back Home
TTITLE9=Bo Diddley Is Loose
TTITLE10=Love Is A Secret
TTITLE11=Quick Draw
EXTD=
EXTT0=
EXTT1=
EXTT2=
EXTT3=
EXTT4=
EXTT5=
EXTT6=
EXTT7=
EXTT8=
EXTT9=
EXTT10=
EXTT11=
PLAYORDER=
